<svg xmlns="http://www.w3.org/2000/svg" viewBox="0 0 64 64" width="512" height="512">
<title>caroline crying</title>
<defs>
    <radialGradient id="eyeColor">
        <stop offset="0%" stop-color="#8266FF"/>
        <stop offset="100%" stop-color="#522BFF"/>
    </radialGradient>
    <radialGradient id="tearColor">
        <stop offset="0%" stop-color="#65b1ef"/>
        <stop offset="100%" stop-color="rgba(60,135,197,0.911)"/>
    </radialGradient>
</defs>
<g id="ears">
    <g fill="#A00500">
        <path id="leftOuterEar" d="M3.1 2C1.3 15.4 1.6 26.2 4.3 33.1l24.8-18.5C24.2 9.6 14.2 3.5 3.1 2z"/>
        <path id="rightOuterEar" d="M60.9 2c1.8 13.4 1.5 24.2-1.2 31.1L34.9 14.7C39.8 9.6 49.8 3.5 60.9 2z"/>
    </g>
    <g fill="#ff3b34">
        <path id="leftInnerEar" d="M57.7 32.2L47.5 18.9s1.9-7.3 11.6-12.4c2.9 11.6-1.4 25.7-1.4 25.7"/>
        <path id="rightInnerEar" d="M6.3 32.2l10.3-13.3S14.7 11.6 5 6.5C2 18.1 6.3 32.2 6.3 32.2"/>
    </g>
</g>
<path id="head" fill="#CE221C" d="M58.2 50.8c.8-.9 1.4-1.6 1.7-2.2 1.6-2.6 2.1-5.3 2.1-5.3l-2 .4s2.3-2.5 1.7-7.8l-2 2.1s1.9-5.4.3-10.4l-2.2 1.6s.7-2 .1-3.4l-.9.7s1.7-4.7.2-6.6c-.9 2.8-1.9 2.8-1.9 2.8s1.2-2.1.3-3c-1 1.6-1.8.6-1.8.1.1-.6-.2-1.5 2.7-2-2.3-1.4-5.1-.4-5.1-.4s.1-1.5 2.1-1.4c-1.9-1.6-4.5-.6-4.5-.6-4.1-3.1-9.6-4.9-17.1-4.9-7.4 0-12.9 1.8-17.1 4.9 0 0-2.6-.9-4.5.6 2-.1 2.1 1.4 2.1 1.4s-2.7-1-5.1.4c2.9.4 2.7 1.3 2.7 2 0 .5-.8 1.5-1.8-.1-1 .9.3 3 .3 3s-1 0-1.9-2.8c-1.5 2 .2 6.6.2 6.6l-.9-.7c-.6 1.4.1 3.4.1 3.4l-2-1.6c-1.7 5 .3 10.4.3 10.4l-1.9-2.1C1.7 41.2 4 43.7 4 43.7l-2-.4s.5 2.7 2.1 5.3c.2.5.8 1.3 1.7 2.2l.1.1C10 55 20.1 62 32 62c11.9 0 22-7 26.1-11.1 0-.1.1-.1.1-.1"/>
<path id="nose" fill="#1F1F1F" d="M36 38c-.8-.9-3.3-1-4-1-.7 0-3.2.1-4 1-.6.7-.1 2.3 1.4 3.8 1 .9 1.9 1.2 2.6 1.2.7 0 1.7-.3 2.6-1.2 1.6-1.4 2-3.1 1.4-3.8"/>
<g id="eyes">
	<g id="corneas" fill="#F3F3F3">
		<path d="M24.3 30.8s-.5-4.6-4.5-6c-4.5-1.7-7.6 2.4-8.5 4.7-1.2 3.4.3 7.1.8 8 .3.6 3.7 3.2 11.2.7 0 0 1.9-3.8 1-7.4"/>
		<path d="M39.7 30.8s.5-4.6 4.5-6c4.5-1.7 7.6 2.4 8.5 4.7 1.2 3.4-.3 7.1-.8 8-.3.6-3.7 3.2-11.2.7 0 0-1.9-3.8-1-7.4"/>
	</g>
    <g id="irises" fill="url('#eyeColor')">
        <ellipse cx="44" cy="32.5" rx="4" ry="4.5"/>
        <ellipse cx="20" cy="32.5" rx="4" ry="4.5"/>
    </g>
    <g id="pupils" fill="#1F1F1F">
        <ellipse cx="44" cy="32.5" rx="2" ry="3"/>
        <ellipse cx="20" cy="32.5" rx="2" ry="3"/>
    </g>
    <g id="eyeShines" fill="white">
        <ellipse id="leftShineBig" cx="21" cy="36" rx="1.75" ry="1.75"/>
        <ellipse id="leftShineSmall" cx="17" cy="31.7" rx="1" ry="1"/>
        <ellipse id="rightShineBig" cx="45" cy="36" rx="1.75" ry="1.75"/>
        <ellipse id="rightShineSmall" cx="41" cy="31.7" rx="1" ry="1"/>
    </g>
</g>
<g id="eyebrows" fill="#730e0a">
	<path id="leftEyebrow" d="m 53.982464,29.037216 c -1.9,0.2 -1.182482,0.455174 -3.110187,-2.332698 C 49.787129,25.42135 47.206442,24.798484 45.579208,25.10198 43.97883,25.400468 43.213418,26.144763 41.3,27.7 40.29604,28.79901 39.506134,29.446599 38.646535,28.961386 38.27077,27.768493 38.4,27.4 39.7,26 c 1.2,-1.5 3.018812,-2.40198 4.718812,-3.20198 1.8,-0.8 3.881812,-0.526909 5.6,0.284158 2.524339,1.191611 4.716366,4.846661 4.456882,5.846661"/>
	<path id="rightEyebrow" d="m 10.022411,28.981208 c 1.9,0.2 1.182482,0.455174 3.110187,-2.332698 1.085148,-1.283168 3.665835,-1.906034 5.293069,-1.602538 1.600378,0.298488 2.36579,1.042783 4.279208,2.59802 1.00396,1.09901 1.793866,1.746599 2.653465,1.261386 0.375765,-1.192893 0.246535,-1.561386 -1.053465,-2.961386 -1.2,-1.5 -3.018812,-2.40198 -4.718812,-3.20198 -1.8,-0.8 -3.881812,-0.526909 -5.6,0.284158 -2.524339,1.191611 -4.7163655,4.846661 -4.4568815,5.846661"/>
</g>
<path fill="black" d="M40.6 49.3c-5.4-2.5-11.8-2.5-17.2 0-1.3.6.3 4.2 1.7 3.5 3.6-1.7 8.9-2.3 13.9 0 1.3.6 3-2.8 1.6-3.5"/>
<path fill="url(#tearColor)" d="M47 37c-4.8 6.5-7.5 12.5-7.5 17.4 0 4.2 3.4 7.6 7.5 7.6s7.5-3.4 7.5-7.6c0-4.9-2.8-11-7.5-17.4"/>
</svg>
