<svg xmlns="http://www.w3.org/2000/svg" viewBox="0 0 64 68" width="512" height="512">
<title>caroline winking with tongue out</title>
<defs>
    <radialGradient id="eyeColor">
        <stop offset="0%" stop-color="#8266FF"/>
        <stop offset="100%" stop-color="#522BFF"/>
    </radialGradient>
</defs>
<g id="ears">
    <g fill="#A00500">
        <path id="leftOuterEar" d="M3.1 2C1.3 15.4 1.6 26.2 4.3 33.1l24.8-18.5C24.2 9.6 14.2 3.5 3.1 2z"/>
        <path id="rightOuterEar" d="M60.9 2c1.8 13.4 1.5 24.2-1.2 31.1L34.9 14.7C39.8 9.6 49.8 3.5 60.9 2z"/>
    </g>
    <g fill="#ff3b34">
        <path id="leftInnerEar" d="M57.7 32.2L47.5 18.9s1.9-7.3 11.6-12.4c2.9 11.6-1.4 25.7-1.4 25.7"/>
        <path id="rightInnerEar" d="M6.3 32.2l10.3-13.3S14.7 11.6 5 6.5C2 18.1 6.3 32.2 6.3 32.2"/>
    </g>
</g>
<path id="head" fill="#CE221C" d="M58.2 50.8c.8-.9 1.4-1.6 1.7-2.2 1.6-2.6 2.1-5.3 2.1-5.3l-2 .4s2.3-2.5 1.7-7.8l-2 2.1s1.9-5.4.3-10.4l-2.2 1.6s.7-2 .1-3.4l-.9.7s1.7-4.7.2-6.6c-.9 2.8-1.9 2.8-1.9 2.8s1.2-2.1.3-3c-1 1.6-1.8.6-1.8.1.1-.6-.2-1.5 2.7-2-2.3-1.4-5.1-.4-5.1-.4s.1-1.5 2.1-1.4c-1.9-1.6-4.5-.6-4.5-.6-4.1-3.1-9.6-4.9-17.1-4.9-7.4 0-12.9 1.8-17.1 4.9 0 0-2.6-.9-4.5.6 2-.1 2.1 1.4 2.1 1.4s-2.7-1-5.1.4c2.9.4 2.7 1.3 2.7 2 0 .5-.8 1.5-1.8-.1-1 .9.3 3 .3 3s-1 0-1.9-2.8c-1.5 2 .2 6.6.2 6.6l-.9-.7c-.6 1.4.1 3.4.1 3.4l-2-1.6c-1.7 5 .3 10.4.3 10.4l-1.9-2.1C1.7 41.2 4 43.7 4 43.7l-2-.4s.5 2.7 2.1 5.3c.2.5.8 1.3 1.7 2.2l.1.1C10 55 20.1 62 32 62c11.9 0 22-7 26.1-11.1 0-.1.1-.1.1-.1"/>
<path id="nose" fill="#1F1F1F" d="M36 38c-.8-.9-3.3-1-4-1-.7 0-3.2.1-4 1-.6.7-.1 2.3 1.4 3.8 1 .9 1.9 1.2 2.6 1.2.7 0 1.7-.3 2.6-1.2 1.6-1.4 2-3.1 1.4-3.8"/>
<g id="eyes">
	<g id="corneas" fill="#F3F3F3">
		<path d="M24.3 30.8s-.5-4.6-4.5-6c-4.5-1.7-7.6 2.4-8.5 4.7-1.2 3.4.3 7.1.8 8 .3.6 3.7 3.2 11.2.7 0 0 1.9-3.8 1-7.4"/>
		<path d="M39.7 30.8s.5-4.6 4.5-6c4.5-1.7 7.6 2.4 8.5 4.7 1.2 3.4-.3 7.1-.8 8-.3.6-3.7 3.2-11.2.7 0 0-1.9-3.8-1-7.4"/>
	</g>
	<g id="irises" fill="url('#eyeColor')">
		<ellipse cx="44" cy="32.5" rx="4" ry="4.5"/>
		<ellipse cx="20" cy="32.5" rx="4" ry="4.5"/>
	</g>
	<g id="pupils" fill="#1F1F1F">
		<ellipse cx="44" cy="32.5" rx="2" ry="3"/>
		<ellipse cx="20" cy="32.5" rx="2" ry="3"/>
	</g>
</g>
<g id="mouth">
	<path id="insideMouth" fill="#E95994" d="M45 46.7c0-.6-.4-1.4-1.4-1.6C41 44.5 37 44 32 44s-9 .5-11.6 1c-1 .2-1.4 1-1.4 1.6C19 52.3 23.3 58 32 58s13-5.7 13-11.3"/>
	<g id="tongue" transform="translate(0,5.5)">
		<path id="tongueBody" fill="#ED7CAB" d="M41.2 44H32h-9.2c-.7 0-.8.3-.8.8v4C22 57.6 26.5 62 32 62s10-4.4 10-13.2v-4c0-.5-.1-.8-.8-.8"/>
		<path id="tongueCrease" fill="#dd699a" d="M33.5 44L32 57.8 30.5 44z"/>
	</g>
</g>
</svg>
